# xmcd
#
# Track frame offsets: 
#        150
#        24411
#        42414
#        61555
#        78602
#        93114
#        110794
#        125057
#        140932
#        156231
#
# Disc length: 2384 seconds
#
# Revision: 5
# Processed by: cddbd v1.5.2PL0 Copyright (c) Steve Scherf et al.
# Submitted via: ExactAudioCopyFreeDBPlugin 1.0
#
DISCID=88094e0a
DTITLE=First Aid Kit - Ruins
DYEAR=2018
DGENRE=Folk/Rock
TTITLE0=Rebel Heart
TTITLE1=It's A Shame
TTITLE2=Fireworks
TTITLE3=Postcard
TTITLE4=To Live A Life
TTITLE5=My Wild Sweet Love
TTITLE6=Distant Star
TTITLE7=Ruins
TTITLE8=Hem Of Her Dress
TTITLE9=Nothing Has To Be True
EXTD=YEAR: 2018
EXTT0=
EXTT1=
EXTT2=
EXTT3=
EXTT4=
EXTT5=
EXTT6=
EXTT7=
EXTT8=
EXTT9=
PLAYORDER=
